# xmcd
#
# Track frame offsets: 
#        187
#        22175
#        41457
#
# Disc length: 973 seconds
#
# Revision: 3
# Processed by: cddbd v1.5.2PL0 Copyright (c) Steve Scherf et al.
# Submitted via: ExactAudioCopyFreeDBPlugin 1.0
#
DISCID=1e03cb03
DTITLE=EPO - 星になれなかった涙
DYEAR=1991
DGENRE=JPop
TTITLE0=星になれなかった涙
TTITLE1=When 2 R In Love(International Version)
TTITLE2=When 2 R In Love(Ambient Love House Mix)
EXTD=
EXTT0=
EXTT1=
EXTT2=
PLAYORDER=
